<?xml  version="1.0" encoding="UTF-8"?>
<!DOCTYPE svg PUBLIC "-//W3C//DTD SVG 1.0//EN" "http://www.w3.org/TR/2001/REC-SVG-20010904/DTD/svg10.dtd" >
<svg xmlns="http://www.w3.org/2000/svg" >
<metadata>
<version>1.0</version>
<id><![CDATA[Century Gothic W01 Italic]]></id>
<vendor>Monotype Imaging Inc.</vendor>
<credits>
<name>Fonts.com WebFonts</name>
<URL>http://webfonts.fonts.com</URL>
<role>Home of the Web fonts</role>
</credits>
<license>
<URL>http://webfonts.fonts.com/Legal</URL>
</license>
<copyright><![CDATA[Typeface © The Monotype Corporation plc. Data © The Monotype Corporation plc / Type Solutions Inc. 1990-91 All Rights Reserved]]></copyright>
<trademark><![CDATA[Century Gothic is a trademark of The Monotype Corporation plc.]]></trademark>
<licensee>
<name></name>
</licensee>
</metadata>
<defs >
<font horiz-adv-x="1157" id="1e08e1b1-b459-4819-95bc-54667cb4d9b5">
<font-face font-family="" panose-1="2 11 5 2 2 2 2 9 2 4" ascent="1989" descent="-451" units-per-em="2048" alphabetic="0">
</font-face>
<missing-glyph horiz-adv-x="567" />

<glyph unicode="&#xA;" />
<glyph unicode="&#xD;" />
<glyph unicode=" " horiz-adv-x="567" />
<glyph unicode="!" horiz-adv-x="604" d="M317 1508H455L304 367H164L317 1508ZM205 216Q256 216 291 180T327 94Q327 44 292 8T205 -28Q154 -28 119 8T83 94Q83 144 118 180T205 216Z"  />
<glyph unicode="&quot;" horiz-adv-x="633" d="M616 1045H513L491 1508H639L616 1045ZM228 1045H124L102 1508H250L228 1045Z"  />
<glyph unicode="#" horiz-adv-x="1475" d="M1233 602V494H985L913 0H801L873 494H540L464 0H354L430 494H184V602H447L498 936H245V1045H514L584 1513H691L623 1045H955L1023 1513H1135L1066 1045H1290V936H1050L1002 602H1233ZM940 936H606L557 602H889L940 936Z"  />
<glyph unicode="$" horiz-adv-x="1135" d="M1032 1255L918 1172Q858 1245 820 1274T728 1322L653 818Q852 707 922 611T992 391Q992 223 866 99T530 -39L485 -350H353L401 -30Q259 -3 165 73T19 268L148 333Q195 237 258 184T420 105L510 728Q357 811 296 883Q206 988 206 1106Q206 1194 258 1277T407 1414T617 1471L634 1580H765L746 1460Q837 1434 901 1389T1032 1255ZM596 1336Q482 1319 416 1252T349 1101Q349 1042 393 984T531 880L596 1336ZM552 98Q701 124 768 198Q848 286 848 391Q848 458 805 520T632 663L552 98Z"  />
<glyph unicode="%" horiz-adv-x="1587" d="M1491 1536L184 -102H68L1270 1408Q1181 1386 1084 1375T883 1364Q833 1364 756 1369Q804 1291 804 1205Q804 1037 693 924T413 811Q276 811 191 896T105 1114Q105 1279 225 1393T489 1508Q528 1508 612 1491Q771 1458 883 1458Q1006 1458 1132 1477T1387 1536H1491ZM492 1399Q384 1399 305 1317T225 1125Q225 1035 281 976T424 917Q539 917 612 1002T685 1200Q685 1287 631 1343T492 1399ZM1186 659Q1316 659 1405 572T1495 356Q1495 201 1389 82T1103 -37Q967 -37 882 48T796 265Q796 424 913 541T1186 659ZM1182 551Q1074 551 995 469T915 276Q915 186 971 127T1114 68Q1230 68 1303 153T1376 351Q1376 438 1321 494T1182 551Z"  />
<glyph unicode="&amp;" horiz-adv-x="1550" d="M1270 551L1362 439Q1249 346 1163 286Q1260 163 1423 0H1223L1097 132Q1071 161 1041 198Q728 -37 481 -37Q365 -37 289 5T164 129T115 304Q115 384 144 447Q183 530 255 600T545 814Q417 1000 417 1126Q417 1249 514 1333T761 1418Q891 1418 974 1345T1057 1173Q1057 1083 997 993T756 773Q856 641 979 499L1066 396L1178 479L1270 551ZM672 891Q820 996 863 1054T906 1163Q906 1208 864 1242T748 1276Q666 1276 617 1233T568 1132Q568 1051 672 891ZM631 694Q404 557 324 460Q264 388 264 306Q264 211 330 157T476 102Q553 102 674 154Q764 193 947 308Q913 342 880 382Q708 594 631 694Z"  />
<glyph unicode="&apos;" horiz-adv-x="405" d="M308 1045H205L183 1508H331L308 1045Z"  />
<glyph unicode="(" horiz-adv-x="756" d="M553 1536H715Q535 1249 431 878T327 102Q327 -198 390 -426H236Q174 -204 174 80Q174 462 274 845T553 1536Z"  />
<glyph unicode=")" horiz-adv-x="756" d="M93 -426H-69Q111 -140 215 234T320 1001Q320 1306 256 1536H410Q470 1319 470 1024Q470 642 371 262T93 -426Z"  />
<glyph unicode="*" horiz-adv-x="870" d="M399 1508H529L500 1211L746 1387L812 1275L535 1150L812 1027L746 914L500 1088L529 791H399L430 1088L184 914L118 1027L399 1150L118 1275L184 1387L430 1211L399 1508Z"  />
<glyph unicode="+" horiz-adv-x="1241" d="M552 804V1238H689V804H1127V667H689V233H552V667H115V804H552Z"  />
<glyph unicode="&#x2c;" horiz-adv-x="567" d="M187 270L314 206L58 -170L-36 -129L187 270Z"  />
<glyph unicode="-" horiz-adv-x="680" d="M21 614H572L554 492H4L21 614Z"  />
<glyph unicode="." horiz-adv-x="567" d="M182 216Q233 216 268 180T304 94Q304 44 269 8T182 -28Q131 -28 96 8T60 94Q60 144 95 180T182 216Z"  />
<glyph unicode="/" horiz-adv-x="895" d="M836 1508L225 -200H72L682 1508H836Z"  />
<glyph unicode="0" horiz-adv-x="1135" d="M633 1508Q800 1508 913 1364T1027 953Q1027 649 934 408T711 65T433 -37Q321 -37 236 22T98 202T45 514Q45 831 134 1067T355 1406T633 1508ZM619 1368Q529 1368 429 1281T261 989T194 501Q194 298 265 200T441 102Q548 102 647 200T805 483Q878 713 878 974Q878 1171 804 1269T619 1368Z"  />
<glyph unicode="1" horiz-adv-x="1135" d="M451 1471H758L563 0H419L596 1329H398L451 1471Z"  />
<glyph unicode="2" horiz-adv-x="1135" d="M275 1026H126Q138 1256 263 1382T587 1508Q756 1508 869 1398T982 1124Q982 1010 924 898T625 524L282 145H913L896 0H-40L445 539Q723 848 777 944T832 1128Q832 1230 758 1300T571 1371Q445 1371 364 1281T275 1026Z"  />
<glyph unicode="3" horiz-adv-x="1135" d="M344 1155H195Q218 1313 333 1410T605 1508Q772 1508 880 1401T988 1125Q988 1014 935 936T749 794Q957 673 957 451Q957 320 891 208T706 29T450 -37Q275 -37 154 76T9 389H156Q172 284 207 230T311 140T455 105Q590 105 698 209T807 442Q807 525 765 594T643 700T434 736L450 866L488 865Q646 865 743 944T841 1133Q841 1230 770 1297T595 1364Q499 1364 430 1307T344 1155Z"  />
<glyph unicode="4" horiz-adv-x="1135" d="M893 1508L753 458H959L940 312H735L694 0H552L593 312H-52L862 1508H893ZM691 1043L243 458H612L691 1043Z"  />
<glyph unicode="5" horiz-adv-x="1135" d="M455 1471H1050L1031 1326H559L455 971Q504 976 534 976Q641 976 738 915T892 744T950 502Q950 355 880 227T697 31T442 -37Q293 -37 179 40T-11 284L125 343Q176 225 261 165T446 105Q580 105 690 211T800 499Q800 652 711 748T484 844Q376 844 251 793L455 1471Z"  />
<glyph unicode="6" horiz-adv-x="1135" d="M713 1508L818 1422L423 953Q493 975 549 975Q718 975 847 854Q999 712 999 486Q999 264 854 114T496 -37Q293 -37 157 101T20 444Q20 577 77 701T321 1045L713 1508ZM517 842Q371 842 268 731T165 457Q165 306 260 207T491 107Q628 107 740 210T853 487Q853 638 755 740T517 842Z"  />
<glyph unicode="7" horiz-adv-x="1135" d="M177 1471H1109L155 -37L39 36L858 1332H155L177 1471Z"  />
<glyph unicode="8" horiz-adv-x="1135" d="M746 794Q853 739 904 669Q975 571 975 446Q975 317 908 204T720 27T453 -37Q260 -37 133 83T6 370Q6 508 86 622T335 813Q243 875 205 942T166 1091Q166 1256 301 1382T624 1508Q788 1508 896 1404T1005 1151Q1005 1038 941 949T746 794ZM620 1364Q491 1364 402 1283T313 1094Q313 998 382 936T564 873Q686 873 771 954T856 1145Q856 1236 789 1300T620 1364ZM542 727Q389 727 272 629T155 373Q155 254 239 177T458 99Q560 99 648 144T785 271T834 438Q834 560 751 643T542 727Z"  />
<glyph unicode="9" horiz-adv-x="1135" d="M351 -37L246 49L641 517Q572 495 516 495Q347 495 217 617Q66 758 66 985Q66 1207 211 1357T568 1508Q771 1508 908 1370T1045 1026Q1045 893 988 770T744 426L351 -37ZM548 629Q694 629 797 739T900 1014Q900 1164 804 1264T573 1364Q436 1364 324 1260T212 983Q212 833 310 731T548 629Z"  />
<glyph unicode=":" horiz-adv-x="567" d="M305 1116Q356 1116 391 1080T427 994Q427 943 392 908T305 872Q254 872 219 907T183 994Q183 1044 219 1080T305 1116ZM182 216Q233 216 268 180T304 94Q304 44 269 8T182 -28Q131 -28 96 8T60 94Q60 144 95 180T182 216Z"  />
<glyph unicode=";" horiz-adv-x="567" d="M306 1116Q357 1116 392 1080T428 994Q428 943 393 908T306 872Q255 872 220 907T184 994Q184 1044 219 1080T306 1116ZM187 270L314 206L58 -170L-36 -129L187 270Z"  />
<glyph unicode="&lt;" horiz-adv-x="1241" d="M1137 347V201L104 670V800L1137 1271V1124L298 734L1137 347Z"  />
<glyph unicode="=" horiz-adv-x="1241" d="M1127 1024V887H115V1024H1127ZM1127 584V447H115V584H1127Z"  />
<glyph unicode="&gt;" horiz-adv-x="1241" d="M104 347L943 734L104 1124V1271L1137 800V670L104 201V347Z"  />
<glyph unicode="?" horiz-adv-x="1210" d="M353 1100H217Q240 1315 367 1425T689 1536Q859 1536 963 1445T1068 1220Q1068 1121 1021 1047T881 920Q837 895 649 830Q491 775 435 720Q378 664 378 606Q378 556 429 517T562 478Q662 478 726 532T810 697H946Q931 529 831 437T560 345Q417 345 331 423T245 615Q245 723 322 802Q398 880 684 983Q824 1034 868 1071Q930 1125 930 1215Q930 1299 865 1350T674 1401Q391 1401 353 1100ZM505 216Q555 216 591 180T627 94Q627 43 592 8T505 -28Q454 -28 419 8T383 94Q383 144 418 180T505 216Z"  />
<glyph unicode="@" horiz-adv-x="1776" d="M1444 301H1550Q1416 134 1302 67Q1140 -27 933 -27Q714 -27 529 76T241 359T137 750Q137 965 241 1150T526 1437T920 1540Q1222 1540 1430 1347T1638 896Q1638 709 1552 574T1317 363Q1204 305 1124 305Q1066 305 1032 336Q1006 359 1005 416Q971 373 912 344T788 315Q644 315 550 414T456 678Q456 855 570 1001T884 1147Q972 1147 1031 1114T1144 999L1170 1137H1278L1162 483Q1157 451 1157 442Q1157 419 1171 406T1207 393Q1266 393 1360 461T1507 637T1560 876Q1560 1130 1363 1297Q1179 1452 915 1452Q719 1452 560 1363T308 1111T215 759Q215 568 308 407T565 153T928 61Q1073 61 1191 113T1444 301ZM838 428Q904 428 962 469T1054 594Q1098 703 1098 813Q1098 914 1042 977T895 1040Q775 1040 688 942T600 696Q600 573 666 501T838 428Z"  />
<glyph unicode="A" horiz-adv-x="1515" d="M852 1471L1345 0H1194L1033 481H410L135 0H-29L818 1471H852ZM805 1163L491 621H987L805 1163Z"  />
<glyph unicode="B" horiz-adv-x="1176" d="M246 1471H435Q713 1471 811 1438T969 1321T1030 1125Q1030 1007 966 914T794 780Q924 740 998 644T1072 415Q1072 280 1009 183T838 43T469 0H50L246 1471ZM373 1331L307 843Q350 839 407 839Q607 839 695 871T833 971T882 1123Q882 1231 806 1282T480 1334Q437 1334 373 1331ZM289 699L215 139H414Q622 139 700 156Q810 181 866 246T923 415Q923 507 877 568T726 664T412 699H289Z"  />
<glyph unicode="C" horiz-adv-x="1665" d="M1576 1268L1487 1145Q1253 1365 954 1365Q759 1365 590 1270T325 1014T229 668Q229 503 302 375T515 175T833 102Q1106 102 1342 275L1424 158Q1249 43 1123 3T832 -37Q527 -37 335 116Q80 321 80 663Q80 1016 335 1262T969 1508Q1142 1508 1284 1454T1576 1268Z"  />
<glyph unicode="D" horiz-adv-x="1524" d="M241 1471H557Q857 1471 1017 1393T1275 1150T1373 774Q1373 549 1263 358T991 84T509 0H46L241 1471ZM368 1329L211 143H340Q638 143 735 159Q883 183 984 253T1157 464T1229 771Q1229 946 1148 1077T924 1273Q803 1329 515 1329H368Z"  />
<glyph unicode="E" horiz-adv-x="1098" d="M1056 1471L1035 1328H373L308 846H970L951 705H289L214 141H876L859 0H48L245 1471H1056Z"  />
<glyph unicode="F" horiz-adv-x="993" d="M955 1471L937 1327H372L307 846H872L854 705H289L192 0H47L245 1471H955Z"  />
<glyph unicode="G" horiz-adv-x="1786" d="M1597 1155L1479 1068Q1368 1213 1219 1290T912 1368Q736 1368 574 1274T320 1023T227 687Q227 444 400 274T823 103Q972 103 1109 164T1331 326T1455 576H916V721H1632Q1610 383 1390 173T840 -37Q502 -37 291 168T80 683Q80 904 191 1095T496 1397T916 1508Q1323 1508 1597 1155Z"  />
<glyph unicode="H" horiz-adv-x="1399" d="M245 1471H390L311 873H1064L1144 1471H1287L1094 0H950L1047 734H290L194 0H48L245 1471Z"  />
<glyph unicode="I" horiz-adv-x="463" d="M238 1471H386L187 0H39L238 1471Z"  />
<glyph unicode="J" horiz-adv-x="987" d="M680 1471H825L692 457Q662 228 623 143T507 10T329 -37Q236 -37 150 3T-25 140L88 220Q213 99 332 99Q422 99 477 181Q519 243 546 446L680 1471Z"  />
<glyph unicode="K" horiz-adv-x="1210" d="M243 1471H388L309 874L998 1471H1209L412 783L1102 0H914L289 710L191 0H47L243 1471Z"  />
<glyph unicode="L" horiz-adv-x="946" d="M246 1471H394L217 138H853L836 0H52L246 1471Z"  />
<glyph unicode="M" horiz-adv-x="1882" d="M1642 1471V0H1504V1014L866 0H829L448 1050L146 0H-3L422 1471H446L876 276L1619 1471H1642Z"  />
<glyph unicode="N" horiz-adv-x="1515" d="M1265 1471H1409L1210 0H1178L350 1140L196 0H50L248 1471H280L1110 329L1265 1471Z"  />
<glyph unicode="O" horiz-adv-x="1780" d="M956 1508Q1253 1508 1450 1313T1648 820Q1648 457 1398 210T773 -37Q455 -37 264 153T73 650Q73 887 187 1085T504 1395T956 1508ZM953 1369Q742 1369 577 1277T315 1016T218 656Q218 494 288 366T481 169T772 101Q970 101 1139 196T1404 461T1501 828Q1501 1089 1318 1242Q1166 1369 953 1369Z"  />
<glyph unicode="P" horiz-adv-x="1212" d="M262 1471H663Q862 1471 948 1434T1087 1316T1139 1123Q1139 978 1057 871T850 724Q759 695 529 695H306L212 0H65L262 1471ZM392 1329L324 840H529Q736 840 815 868T943 966T992 1121Q992 1191 959 1240T868 1309T655 1329H392Z"  />
<glyph unicode="Q" horiz-adv-x="1784" d="M1399 209L1651 -59H1464L1294 121Q1070 -37 775 -37Q457 -37 266 153T75 650Q75 886 188 1083T504 1394T946 1508Q1253 1508 1451 1314T1650 820Q1650 460 1399 209ZM1298 315Q1395 415 1449 549T1503 828Q1503 1066 1347 1217T940 1369Q743 1369 577 1275T315 1014T220 656Q220 494 290 366T483 169T773 101Q1003 101 1193 228L946 489H1135L1298 315Z"  />
<glyph unicode="R" horiz-adv-x="1243" d="M278 1471H647Q844 1471 929 1434T1067 1314T1120 1122Q1120 1003 1058 901T887 748T603 696L1047 0H880L437 696H321L226 0H78L278 1471ZM407 1330L341 840H510Q698 840 756 855Q853 879 912 949T972 1122Q972 1237 889 1289Q825 1330 659 1330H407Z"  />
<glyph unicode="S" horiz-adv-x="1020" d="M927 1199L788 1164Q760 1257 696 1311T558 1365Q476 1365 425 1310T373 1161Q373 1079 428 990Q462 934 592 816Q727 694 780 589T834 382Q834 275 776 176T618 20T408 -37Q267 -37 164 53T15 317L151 363Q183 231 255 167T421 103Q528 103 605 182T682 377Q682 462 639 543T468 738Q332 862 291 928Q224 1038 224 1160Q224 1311 322 1409T567 1508Q690 1508 786 1430T927 1199Z"  />
<glyph unicode="T" horiz-adv-x="872" d="M73 1471H952L933 1331H558L381 0H234L411 1331H54L73 1471Z"  />
<glyph unicode="U" horiz-adv-x="1341" d="M233 1471H378L267 629Q245 461 245 390Q245 252 324 178T547 103Q648 103 726 137T858 236T936 386Q976 534 1005 760L1097 1471H1242L1144 728L1120 546Q1099 419 1070 330T994 171T887 58T742 -11T550 -37Q333 -37 215 73T97 365Q97 416 103 479L125 651L233 1471Z"  />
<glyph unicode="V" horiz-adv-x="1438" d="M122 1471H270L635 306L1318 1471H1481L619 0H585L122 1471Z"  />
<glyph unicode="W" horiz-adv-x="1966" d="M126 1471H269L473 378L1042 1471H1070L1327 378L1847 1471H2002L1300 0H1273L1014 1108L428 0H401L126 1471Z"  />
<glyph unicode="X" horiz-adv-x="1247" d="M217 1471H373L633 899L1066 1471H1238L698 758L1046 0H891L603 627L127 0H-46L538 771L217 1471Z"  />
<glyph unicode="Y" horiz-adv-x="1212" d="M83 1471H237L552 803L1083 1471H1261L609 652L520 0H376L465 660L83 1471Z"  />
<glyph unicode="Z" horiz-adv-x="983" d="M217 1471H973L251 140H802L783 0H13L738 1329H198L217 1471Z"  />
<glyph unicode="[" horiz-adv-x="719" d="M370 1508H706L686 1366H490L262 -261H457L438 -398H102L370 1508Z"  />
<glyph unicode="\" horiz-adv-x="1239" d="M220 1508L1172 -200H1019L66 1508H220Z"  />
<glyph unicode="]" horiz-adv-x="719" d="M240 -398H-96L-76 -256H119L348 1371H153L172 1508H508L240 -398Z"  />
<glyph unicode="^" horiz-adv-x="1376" d="M629 1471H747L1257 365H1124L685 1317L249 365H120L629 1471Z"  />
<glyph unicode="_" horiz-adv-x="1024" d="M-12 -154H1036V-256H-12V-154Z"  />
<glyph unicode="`" horiz-adv-x="774" d="M430 1598L605 1290H467L215 1598H430Z"  />
<glyph unicode="a" horiz-adv-x="1399" d="M1121 0H980L1001 164Q812 -28 568 -28Q346 -28 203 115T60 483Q60 743 245 929T682 1116Q818 1116 920 1059T1096 881L1121 1088H1266L1121 0ZM583 100Q718 100 829 163T1005 346T1070 605Q1070 774 963 880T685 986Q484 986 341 841T198 485Q198 312 305 206T583 100Z"  />
<glyph unicode="b" horiz-adv-x="1397" d="M260 1508H402L325 925Q514 1116 757 1116Q980 1116 1122 973T1265 605Q1265 345 1080 159T644 -28Q508 -28 405 29T229 208L204 0H59L260 1508ZM742 988Q608 988 497 925T320 742T255 483Q255 314 362 208T640 102Q841 102 984 247T1127 603Q1127 776 1021 882T742 988Z"  />
<glyph unicode="c" horiz-adv-x="1325" d="M1198 853L1083 786Q962 982 713 982Q569 982 450 918T264 740T197 496Q197 381 247 290T387 150T601 101Q727 101 841 151T1020 280L1135 199Q1027 81 901 27T607 -28Q349 -28 205 112T60 487Q60 747 249 931T714 1116Q879 1116 1005 1047T1198 853Z"  />
<glyph unicode="d" horiz-adv-x="1403" d="M1123 0H982L1003 164Q814 -28 570 -28Q348 -28 205 115T62 483Q62 743 247 929T684 1116Q820 1116 922 1059T1098 881L1179 1508H1324L1123 0ZM585 100Q720 100 831 163T1007 346T1072 605Q1072 774 965 880T687 986Q486 986 343 841T200 485Q200 312 307 206T585 100Z"  />
<glyph unicode="e" horiz-adv-x="1331" d="M1166 516H196Q193 322 297 211Q401 100 574 100Q689 100 787 147T949 279L1053 194Q974 93 847 33T571 -28Q315 -28 187 130T58 487Q58 649 144 799T376 1032T690 1116Q899 1116 1036 975T1173 614Q1173 574 1166 516ZM1038 637Q1032 791 933 886T684 982Q521 982 397 890T220 637H1038Z"  />
<glyph unicode="f" horiz-adv-x="643" d="M666 1471L647 1339Q572 1411 506 1411Q464 1411 434 1370T387 1204L370 1088H594L579 965H355L219 0H82L219 965H82L97 1088H235L248 1184Q272 1353 299 1410T379 1501T496 1536Q580 1536 666 1471Z"  />
<glyph unicode="g" horiz-adv-x="1378" d="M1113 1088H1250L1125 167Q1095 -56 1052 -145Q993 -268 856 -347T532 -426Q348 -426 219 -351T22 -134L147 -89Q261 -296 532 -296Q675 -296 779 -238T929 -89Q956 -34 984 150L990 193Q813 0 559 0Q334 0 197 137T60 495Q60 657 143 799T373 1029T671 1116Q797 1116 901 1060T1086 881L1113 1088ZM698 983Q561 983 444 918T262 740T197 489Q197 329 299 231T573 133Q781 133 918 269T1056 612Q1056 794 944 888T698 983Z"  />
<glyph unicode="h" horiz-adv-x="1249" d="M248 1508H384L304 923Q472 1116 688 1116Q853 1116 957 1013T1062 745Q1062 654 1040 500L972 0H834L902 500Q923 651 923 740Q923 852 853 921T669 990Q563 990 469 933T323 779T242 471L177 0H41L248 1508Z"  />
<glyph unicode="i" horiz-adv-x="410" d="M274 1536Q320 1536 353 1503T386 1424Q386 1377 353 1345T274 1312Q227 1312 195 1344T162 1424Q162 1470 194 1503T274 1536ZM164 1088H297L152 0H14L164 1088Z"  />
<glyph unicode="j" horiz-adv-x="416" d="M281 1536Q327 1536 360 1503T393 1424Q393 1377 360 1345T281 1312Q234 1312 201 1344T168 1424Q168 1470 201 1503T281 1536ZM170 1088H307L148 -70Q118 -285 64 -355T-76 -426Q-129 -426 -197 -398L-180 -279Q-143 -301 -109 -301Q-68 -301 -45 -269Q-12 -221 3 -113L170 1088Z"  />
<glyph unicode="k" horiz-adv-x="1028" d="M252 1508H388L273 685L797 1088H1015L383 602L940 0H754L252 540L179 0H39L252 1508Z"  />
<glyph unicode="l" horiz-adv-x="410" d="M225 1508H362L152 0H14L225 1508Z"  />
<glyph unicode="m" horiz-adv-x="1921" d="M191 1088H328L306 934Q369 1019 467 1067T664 1116Q787 1116 882 1043Q955 986 991 873Q1065 989 1173 1052T1394 1116Q1545 1116 1642 1019T1739 768Q1739 698 1726 597L1645 0H1509L1582 522Q1605 686 1605 762Q1605 857 1543 919T1378 981Q1270 981 1177 914T1045 754T986 522L912 0H773L855 597Q869 692 869 753Q869 858 807 921T645 984Q561 984 484 945T358 841T284 683T247 512L175 0H36L191 1088Z"  />
<glyph unicode="n" horiz-adv-x="1249" d="M192 1088H326L305 921Q470 1116 689 1116Q857 1116 960 1013T1063 734Q1063 664 1041 499L973 0H835L902 499Q924 659 924 735Q924 849 855 919T674 989Q564 989 470 933T323 779T243 470L178 0H41L192 1088Z"  />
<glyph unicode="o" horiz-adv-x="1341" d="M680 1116Q819 1116 935 1050T1116 865T1181 596Q1181 425 1098 279T875 52T558 -28Q339 -28 198 115T56 481Q56 655 139 802T366 1032T680 1116ZM677 983Q547 983 433 918T257 740T195 489Q195 317 301 210T575 102Q706 102 812 164T982 345T1045 598Q1045 711 998 798T865 934T677 983Z"  />
<glyph unicode="p" horiz-adv-x="1397" d="M204 1088H346L325 925Q514 1116 757 1116Q980 1116 1122 973T1265 605Q1265 345 1080 159T644 -28Q508 -28 405 29T230 208L151 -398H6L204 1088ZM742 988Q608 988 497 925T320 742T255 483Q255 314 362 208T640 102Q841 102 984 247T1127 603Q1127 776 1021 882T742 988Z"  />
<glyph unicode="q" horiz-adv-x="1397" d="M1067 -398H925L1000 164Q811 -28 567 -28Q345 -28 202 115T59 483Q59 743 244 929T681 1116Q817 1116 919 1059T1095 881L1120 1088H1265L1067 -398ZM582 100Q717 100 828 163T1004 346T1069 605Q1069 774 962 880T684 986Q483 986 340 841T197 485Q197 312 304 206T582 100Z"  />
<glyph unicode="r" horiz-adv-x="616" d="M133 1088H272L254 951Q310 1029 389 1072T551 1116Q610 1116 674 1088L608 960Q556 981 521 981Q448 981 377 930T261 782T185 461L121 0H-15L133 1088Z"  />
<glyph unicode="s" horiz-adv-x="795" d="M694 966L618 853Q526 984 400 984Q328 984 277 937T226 833Q226 789 257 749Q287 709 394 640Q550 539 600 464Q649 388 649 289Q649 152 554 62T305 -28Q103 -28 -35 151L50 250Q171 103 313 103Q394 103 454 160T514 292Q514 353 469 409Q440 445 313 531Q176 625 133 687Q90 748 90 825Q90 946 181 1031T411 1116Q493 1116 559 1083T694 966Z"  />
<glyph unicode="t" horiz-adv-x="694" d="M363 1495H500L446 1088H662L646 966H430L298 0H158L289 966H102L119 1088H305L363 1495Z"  />
<glyph unicode="u" horiz-adv-x="1245" d="M188 1088H328L265 633Q239 440 239 385Q239 260 322 181T543 102Q657 102 741 162T861 319Q879 368 904 544L982 1088H1119L1063 676Q1023 381 978 257T818 52T536 -28Q347 -28 227 87T106 376Q106 445 117 537L127 633L132 674L188 1088Z"  />
<glyph unicode="v" horiz-adv-x="1135" d="M56 1088H199L474 292L932 1088H1084L457 0H431L56 1088Z"  />
<glyph unicode="w" horiz-adv-x="1702" d="M70 1088H209L433 320L842 1088H866L1114 312L1514 1088H1664L1102 0H1074L822 768L413 0H387L70 1088Z"  />
<glyph unicode="x" horiz-adv-x="983" d="M36 1088H194L459 663L770 1088H938L535 540L864 0H705L447 418L140 0H-28L371 540L36 1088Z"  />
<glyph unicode="y" horiz-adv-x="1098" d="M47 1088H191L473 285L939 1088H1094L232 -398H75L383 133L47 1088Z"  />
<glyph unicode="z" horiz-adv-x="870" d="M92 1088H840L190 124H781L765 0H-57L596 965H76L92 1088Z"  />
<glyph unicode="{" horiz-adv-x="719" d="M62 591Q123 593 164 615Q219 644 251 696T301 840Q309 884 333 1048T387 1284T464 1397T580 1459Q622 1471 709 1471H764L742 1314H711Q627 1314 593 1295T541 1234T500 1034Q471 824 440 739T361 603T217 510Q299 473 338 408T378 231Q378 161 353 -15Q335 -144 335 -186Q335 -246 365 -270T485 -294H516L494 -451H439Q346 -451 307 -439Q240 -417 203 -361T165 -215Q165 -153 192 41Q210 179 210 236Q210 330 166 378T39 428L62 591Z"  />
<glyph unicode="|" horiz-adv-x="1376" d="M616 1508H759V-398H616V1508Z"  />
<glyph unicode="}" horiz-adv-x="719" d="M535 428Q474 427 433 405Q379 375 347 324T297 179Q289 135 264 -29T210 -264T133 -378T17 -440Q-24 -451 -111 -451H-167L-145 -294H-114Q-30 -294 4 -275T57 -215T97 -15Q127 195 158 280T237 416T380 510Q299 546 260 611T220 789Q220 858 245 1034Q263 1164 263 1206Q263 1265 233 1289T112 1314H81L103 1471H159Q252 1471 290 1458Q357 1436 394 1380T432 1235Q432 1172 406 979Q387 840 387 784Q387 689 431 641T558 591L535 428Z"  />
<glyph unicode="~" horiz-adv-x="1241" d="M1128 837V675Q1016 612 968 596T876 579Q781 579 611 656Q479 716 443 727T374 739Q330 739 277 720T112 634V794Q222 856 271 873T366 890Q463 890 634 809Q752 753 795 740T874 726Q916 726 959 742T1128 837Z"  />
<glyph unicode="&#xA0;" horiz-adv-x="573" />
<glyph unicode="&#xA1;" horiz-adv-x="604" d="M308 867Q258 867 222 902T186 988Q186 1039 222 1074T308 1110Q359 1110 395 1075T431 988Q431 938 395 903T308 867ZM197 -426H59L209 715H349L197 -426Z"  />
<glyph unicode="&#xA2;" horiz-adv-x="1135" d="M1022 1352L1125 1284L957 1024Q1007 991 1050 950L964 840Q926 875 882 908L382 138Q462 106 544 106Q744 106 903 247L981 138Q792 -28 532 -28Q411 -28 306 23L108 -284L-1 -215L203 95Q119 185 82 275T45 474Q45 641 130 791T361 1028T661 1116Q745 1116 847 1082L1022 1352ZM768 964Q711 982 668 982Q545 982 431 914T250 729T183 479Q183 322 279 212L768 964Z"  />
<glyph unicode="&#xA3;" horiz-adv-x="1135" d="M128 844H382Q351 1049 351 1107Q351 1290 461 1399T747 1508Q896 1508 985 1416T1074 1159L1073 1124H929Q924 1259 878 1312T741 1366Q635 1366 567 1299T498 1125Q498 1031 533 844H851L833 707H549Q552 643 552 596Q552 403 497 258Q649 145 671 133Q709 114 741 114Q794 114 833 177T885 343H1031Q1019 195 940 79T737 -37Q673 -37 614 -9Q530 32 430 122Q316 -37 177 -37Q92 -37 39 16T-14 153Q-14 246 54 315T218 384Q298 384 372 343Q404 456 404 541L397 707H109L128 844ZM317 211Q259 248 217 248Q176 248 149 225T122 168Q122 138 140 119T187 100Q252 100 317 211Z"  />
<glyph unicode="&#xA4;" horiz-adv-x="1135" d="M42 192L158 306Q97 388 74 459T50 614Q50 703 78 785Q99 848 161 925L41 1042L131 1133L251 1014Q327 1073 407 1099T572 1126Q653 1126 728 1102T884 1020L1001 1133L1089 1042L973 930Q1037 851 1062 777T1088 615Q1088 529 1064 457T979 306L1095 192L1006 102L890 217Q811 155 734 129T569 102Q483 102 407 128T248 217L131 102L42 192ZM193 612Q193 458 303 349T569 240Q725 240 835 350T945 615Q945 770 836 879T570 989Q414 989 304 879T193 612Z"  />
<glyph unicode="&#xA5;" horiz-adv-x="1135" d="M145 1471H298L551 868L962 1471H1130L614 705H981L963 590H597L575 435H941L924 318H557L513 0H368L413 318H45L61 435H430L451 590H83L98 705H466L145 1471Z"  />
<glyph unicode="&#xA6;" horiz-adv-x="1376" d="M616 686V1508H759V741L616 686ZM616 -398V559L759 613V-398H616Z"  />
<glyph unicode="&#xA7;" horiz-adv-x="1259" d="M1045 1195H906Q880 1395 699 1395Q588 1395 517 1332T445 1186Q445 1120 503 1057Q561 994 712 899Q878 794 936 714T994 555Q994 486 955 417T839 297T655 224Q761 139 800 69T839 -79Q839 -167 788 -248T641 -378T428 -426Q275 -426 183 -353T65 -139H206Q233 -219 288 -256T433 -293Q548 -293 621 -231T695 -83Q695 -53 684 -23T648 36Q601 94 393 241Q239 350 192 422T144 588Q144 697 225 787T453 912Q374 974 340 1040T305 1182Q305 1327 416 1431T698 1536Q849 1536 944 1444T1045 1195ZM553 839Q427 821 354 753T281 604Q281 556 307 511T400 413L553 306Q687 318 768 390T850 543Q850 581 832 616T759 694L553 839Z"  />
<glyph unicode="&#xA8;" horiz-adv-x="756" d="M279 1518Q322 1518 351 1489T380 1418Q380 1366 340 1326T245 1286Q203 1286 175 1314T146 1386Q146 1438 186 1478T279 1518ZM687 1518Q731 1518 759 1489T788 1418Q788 1366 748 1326T654 1286Q611 1286 583 1314T554 1386Q554 1438 594 1478T687 1518Z"  />
<glyph unicode="&#xA9;" horiz-adv-x="1530" d="M1551 757Q1551 546 1446 365T1159 79T766 -27Q556 -27 373 78T85 365T-20 757Q-20 967 85 1148T372 1435T766 1540Q976 1540 1158 1435T1446 1149T1551 757ZM1442 757Q1442 939 1352 1095T1104 1343T765 1434Q584 1434 427 1343T180 1095T89 757Q89 575 179 418T427 171T766 80Q947 80 1104 170T1351 418T1442 757ZM1150 924H1014Q993 1013 935 1057T779 1102Q652 1102 575 1013T498 751Q498 583 572 495T765 407Q865 407 930 468T1014 653H1150Q1131 489 1026 392T770 295Q581 295 468 416T355 753Q355 979 472 1105T771 1231Q938 1231 1038 1148T1150 924Z"  />
<glyph unicode="&#xAA;" horiz-adv-x="756" d="M628 810H512L523 890Q466 834 421 814T325 794Q217 794 143 881T69 1114Q69 1283 164 1395T381 1508Q433 1508 478 1485T594 1387L607 1491H726L628 810ZM354 899Q445 899 508 977T572 1187Q572 1287 523 1344T401 1402Q316 1402 250 1322T183 1116Q183 1014 232 957T354 899Z"  />
<glyph unicode="&#xAB;" horiz-adv-x="870" d="M292 1088H444L142 538L284 0H148L-1 557L292 1088ZM752 1088H904L602 538L744 0H608L459 557L752 1088Z"  />
<glyph unicode="&#xAC;" horiz-adv-x="1241" d="M1127 1024V447H990L989 887H115V1024H1127Z"  />
<glyph unicode="&#xAD;" horiz-adv-x="680" d="M21 614H572L554 492H4L21 614Z"  />
<glyph unicode="&#xAE;" horiz-adv-x="1530" d="M1551 760Q1551 548 1446 367T1158 79T766 -27Q557 -27 374 78T86 366T-20 756Q-20 966 85 1150T373 1439T766 1544Q976 1544 1157 1440T1445 1151T1551 760ZM1442 759Q1442 939 1351 1097T1104 1347T768 1438Q587 1438 429 1347T180 1098T89 757Q89 576 179 419T429 171T768 80Q947 80 1104 171T1351 419T1442 759ZM439 1217H816Q948 1217 1006 1191T1100 1104T1137 964Q1137 895 1111 845Q1091 808 1024 764Q1085 734 1106 695T1127 559V457Q1127 385 1159 337L1174 313H1014Q999 369 993 446L986 557Q982 618 967 643T923 679T809 690H582V313H439V1217ZM582 1087V819H804Q905 819 941 842Q994 875 994 954Q994 1023 956 1055T813 1087H582Z"  />
<glyph unicode="&#xAF;" horiz-adv-x="1024" d="M72 1685H1120V1583H72V1685Z"  />
<glyph unicode="&#xB0;" horiz-adv-x="819" d="M797 1164Q797 1019 696 920T451 820Q307 820 207 920T107 1167Q107 1308 209 1408T454 1508Q596 1508 696 1408T797 1164ZM678 1162Q678 1264 613 1333T455 1402Q361 1402 294 1333T226 1164Q226 1067 294 997T454 926Q546 926 612 995T678 1162Z"  />
<glyph unicode="&#xB1;" horiz-adv-x="1124" d="M493 913V1347H630V913H1068V776H630V342H493V776H56V913H493ZM1068 161V24H56V161H1068Z"  />
<glyph unicode="&#xB2;" horiz-adv-x="680" d="M248 1241H136Q143 1369 217 1438T420 1508Q531 1508 598 1449T666 1303Q666 1245 633 1189T452 997L276 833H628L613 733H17L328 1024Q492 1177 523 1222T554 1306Q554 1348 515 1380T411 1412Q338 1412 295 1369T248 1241Z"  />
<glyph unicode="&#xB3;" horiz-adv-x="680" d="M274 1305H162Q172 1371 203 1412T293 1481T419 1508Q526 1508 591 1450T657 1305Q657 1251 630 1212T535 1139Q594 1098 616 1059T638 971Q638 867 551 791T327 715Q214 715 141 778T53 954H164Q175 881 211 852Q260 813 331 813Q408 813 467 862T526 965Q526 1025 475 1061T304 1098L317 1191L348 1190Q440 1190 501 1231Q546 1262 546 1308Q546 1349 509 1379T413 1409Q357 1409 320 1382T274 1305Z"  />
<glyph unicode="&#xB4;" horiz-adv-x="768" d="M581 1598H796L457 1290H319L581 1598Z"  />
<glyph unicode="&#xB5;" horiz-adv-x="1180" d="M-24 -398L180 1088H320L239 514Q228 432 228 384Q228 269 302 198T495 127Q594 127 678 186T802 330Q827 385 847 531L925 1088H1065L915 0H775L791 118Q721 44 642 10T470 -25Q375 -25 305 9T186 115L116 -398H-24Z"  />
<glyph unicode="&#xB6;" horiz-adv-x="1155" d="M483 -231V706Q408 706 372 714Q294 731 231 781T131 916T94 1105Q94 1294 210 1413Q307 1513 509 1513H1022V1438H938V-231H819V1438H602V-231H483Z"  />
<glyph unicode="&#xB7;" horiz-adv-x="682" d="M600 870Q643 870 672 842T701 770Q701 718 661 678T566 638Q524 638 496 667T467 738Q467 790 507 830T600 870Z"  />
<glyph unicode="&#xB8;" horiz-adv-x="664" d="M178 0H266L232 -118Q256 -115 271 -115Q315 -115 343 -141T372 -206Q372 -276 304 -328T119 -380Q31 -380 -43 -350L-12 -281Q50 -301 106 -301Q184 -301 217 -281T250 -232Q250 -216 235 -205T194 -193Q170 -193 122 -202L178 0Z"  />
<glyph unicode="&#xB9;" horiz-adv-x="680" d="M295 1489H498L378 733H269L373 1391H251L295 1489Z"  />
<glyph unicode="&#xBA;" horiz-adv-x="756" d="M420 1508Q540 1508 622 1418T705 1182Q705 1013 604 904T353 794Q231 794 149 882T67 1113Q67 1283 171 1395T420 1508ZM416 1401Q355 1401 300 1366T213 1265T181 1117Q181 1018 233 959T364 899Q467 899 530 982T593 1183Q593 1284 542 1342T416 1401Z"  />
<glyph unicode="&#xBB;" horiz-adv-x="870" d="M533 0H381L683 550L542 1088H677L826 531L533 0ZM73 0H-79L223 550L82 1088H217L366 531L73 0Z"  />
<glyph unicode="&#xBC;" horiz-adv-x="1702" d="M225 1489H428L308 733H199L303 1391H181L225 1489ZM227 -37L1159 1508H1271L338 -37H227ZM1490 791L1403 247H1525L1509 147H1388L1364 -8H1256L1280 147H883L1490 791H1490ZM1332 473L1119 247H1296L1332 473Z"  />
<glyph unicode="&#xBD;" horiz-adv-x="1702" d="M225 1489H428L308 733H199L303 1391H181L225 1489ZM204 -37L1136 1508H1248L315 -37H204ZM1118 509H1006Q1013 637 1087 706T1290 776Q1401 776 1468 717T1536 571Q1536 513 1503 457T1322 265L1146 101H1498L1483 1H887L1198 292Q1362 445 1393 490T1424 574Q1424 616 1385 648T1281 680Q1208 680 1165 637T1118 509Z"  />
<glyph unicode="&#xBE;" horiz-adv-x="1702" d="M258 1305H146Q156 1371 187 1412T277 1481T403 1508Q510 1508 575 1450T641 1305Q641 1251 614 1212T519 1139Q578 1098 600 1059T622 971Q622 867 535 791T311 715Q198 715 125 778T37 954H148Q159 881 195 852Q244 813 315 813Q392 813 451 862T510 965Q510 1025 459 1061T288 1098L301 1191L332 1190Q424 1190 485 1231Q530 1262 530 1308Q530 1349 493 1379T397 1409Q341 1409 304 1382T258 1305ZM376 -37L1308 1508H1420L487 -37H376ZM1575 791L1488 247H1610L1594 147H1473L1449 -8H1341L1365 147H968L1575 791H1575ZM1417 473L1204 247H1381L1417 473Z"  />
<glyph unicode="&#xBF;" horiz-adv-x="1210" d="M648 894Q597 894 561 929T525 1016Q525 1066 561 1102T648 1138Q698 1138 734 1102T770 1016Q770 966 734 930T648 894ZM799 10H935Q912 -205 785 -315T464 -426Q293 -426 189 -335T84 -110Q84 -11 131 63T271 190Q316 215 503 280Q661 335 718 391Q774 446 774 504Q774 554 724 593T591 632Q490 632 426 578T343 413H207Q221 580 321 672T592 765Q736 765 822 687T908 495Q908 387 831 309Q754 230 468 127Q328 76 285 39Q222 -15 222 -105Q222 -189 287 -240T478 -291Q761 -291 799 10Z"  />
<glyph unicode="&#xC0;" horiz-adv-x="1515" d="M852 1471L1345 0H1194L1033 481H410L135 0H-29L818 1471H852ZM805 1163L491 621H987L805 1163ZM801 1895L976 1587H838L586 1895H801Z"  />
<glyph unicode="&#xC1;" horiz-adv-x="1515" d="M852 1471L1345 0H1194L1033 481H410L135 0H-29L818 1471H852ZM805 1163L491 621H987L805 1163ZM954 1895H1169L830 1587H692L954 1895Z"  />
<glyph unicode="&#xC2;" horiz-adv-x="1515" d="M852 1471L1345 0H1194L1033 481H410L135 0H-29L818 1471H852ZM805 1163L491 621H987L805 1163ZM799 1840H938L1192 1583H1012L857 1735L652 1583H466L799 1840Z"  />
<glyph unicode="&#xC3;" horiz-adv-x="1515" d="M852 1471L1345 0H1194L1033 481H410L135 0H-29L818 1471H852ZM805 1163L491 621H987L805 1163ZM1143 1789L1200 1692Q1120 1640 1068 1622T961 1604Q889 1604 818 1641Q758 1673 741 1678Q717 1685 691 1685Q654 1685 621 1673T522 1616L470 1718Q575 1815 708 1815Q772 1815 856 1775Q936 1736 982 1736Q1040 1736 1143 1789Z"  />
<glyph unicode="&#xC4;" horiz-adv-x="1515" d="M852 1471L1345 0H1194L1033 481H410L135 0H-29L818 1471H852ZM805 1163L491 621H987L805 1163ZM658 1816Q701 1816 730 1787T759 1716Q759 1664 719 1624T624 1584Q582 1584 554 1612T525 1684Q525 1736 565 1776T658 1816ZM1066 1816Q1110 1816 1138 1787T1167 1716Q1167 1664 1127 1624T1033 1584Q990 1584 962 1612T933 1684Q933 1736 973 1776T1066 1816Z"  />
<glyph unicode="&#xC5;" horiz-adv-x="1515" d="M852 1471L1345 0H1194L1033 481H410L135 0H-29L818 1471H852ZM805 1163L491 621H987L805 1163ZM886 1989Q966 1989 1019 1937T1072 1805Q1072 1709 998 1636T824 1562Q746 1562 694 1615T641 1746Q641 1842 715 1915T886 1989ZM870 1888Q820 1888 782 1850T744 1763Q744 1722 771 1695T839 1668Q890 1668 928 1706T966 1793Q966 1834 939 1861T870 1888Z"  />
<glyph unicode="&#xC6;" horiz-adv-x="2032" d="M1743 0H911L976 478H472L126 0H-33L1026 1471H1921L1900 1328H1239L1174 846H1835L1816 705H1154L1079 141H1759L1743 0ZM1092 1344L573 621H996L1092 1344Z"  />
<glyph unicode="&#xC7;" horiz-adv-x="1665" d="M1576 1268L1487 1145Q1253 1365 954 1365Q759 1365 590 1270T325 1014T229 668Q229 503 302 375T515 175T833 102Q1106 102 1342 275L1424 158Q1249 43 1123 3T832 -37Q527 -37 335 116Q80 321 80 663Q80 1016 335 1262T969 1508Q1142 1508 1284 1454T1576 1268ZM715 0H803L769 -118Q793 -115 808 -115Q852 -115 880 -141T909 -206Q909 -276 841 -328T656 -380Q568 -380 494 -350L525 -281Q587 -301 643 -301Q721 -301 754 -281T787 -232Q787 -216 772 -205T731 -193Q707 -193 659 -202L715 0Z"  />
<glyph unicode="&#xC8;" horiz-adv-x="1098" d="M1056 1471L1035 1328H373L308 846H970L951 705H289L214 141H876L859 0H48L245 1471H1056ZM628 1895L803 1587H665L413 1895H628Z"  />
<glyph unicode="&#xC9;" horiz-adv-x="1098" d="M1056 1471L1035 1328H373L308 846H970L951 705H289L214 141H876L859 0H48L245 1471H1056ZM781 1895H996L657 1587H519L781 1895Z"  />
<glyph unicode="&#xCA;" horiz-adv-x="1098" d="M1056 1471L1035 1328H373L308 846H970L951 705H289L214 141H876L859 0H48L245 1471H1056ZM627 1840H766L1020 1583H840L685 1735L480 1583H294L627 1840Z"  />
<glyph unicode="&#xCB;" horiz-adv-x="1098" d="M1056 1471L1035 1328H373L308 846H970L951 705H289L214 141H876L859 0H48L245 1471H1056ZM485 1816Q528 1816 557 1787T586 1716Q586 1664 546 1624T451 1584Q409 1584 381 1612T352 1684Q352 1736 392 1776T485 1816ZM893 1816Q937 1816 965 1787T994 1716Q994 1664 954 1624T860 1584Q817 1584 789 1612T760 1684Q760 1736 800 1776T893 1816Z"  />
<glyph unicode="&#xCC;" horiz-adv-x="463" d="M238 1471H386L187 0H39L238 1471ZM275 1895L450 1587H312L60 1895H275Z"  />
<glyph unicode="&#xCD;" horiz-adv-x="463" d="M238 1471H386L187 0H39L238 1471ZM465 1895H680L341 1587H203L465 1895Z"  />
<glyph unicode="&#xCE;" horiz-adv-x="463" d="M238 1471H386L187 0H39L238 1471ZM311 1840H450L704 1583H524L369 1735L164 1583H-22L311 1840Z"  />
<glyph unicode="&#xCF;" horiz-adv-x="463" d="M238 1471H386L187 0H39L238 1471ZM170 1816Q213 1816 242 1787T271 1716Q271 1664 231 1624T136 1584Q94 1584 66 1612T37 1684Q37 1736 77 1776T170 1816ZM578 1816Q622 1816 650 1787T679 1716Q679 1664 639 1624T545 1584Q502 1584 474 1612T445 1684Q445 1736 485 1776T578 1816Z"  />
<glyph unicode="&#xD0;" horiz-adv-x="1618" d="M230 669H44L62 801H247L336 1471H652Q951 1471 1111 1393T1370 1150T1468 774Q1468 549 1358 358T1086 84T604 0H141L230 669ZM375 669L305 143H434Q733 143 830 159Q977 183 1078 253T1252 464T1324 771Q1324 946 1242 1077T1019 1273Q897 1329 609 1329H463L393 801H751L733 669H375Z"  />
<glyph unicode="&#xD1;" horiz-adv-x="1515" d="M1265 1471H1409L1210 0H1178L350 1140L196 0H50L248 1471H280L1110 329L1265 1471ZM1143 1789L1200 1692Q1120 1640 1068 1622T961 1604Q889 1604 818 1641Q758 1673 741 1678Q717 1685 691 1685Q654 1685 621 1673T522 1616L470 1718Q575 1815 708 1815Q772 1815 856 1775Q936 1736 982 1736Q1040 1736 1143 1789Z"  />
<glyph unicode="&#xD2;" horiz-adv-x="1780" d="M956 1508Q1253 1508 1450 1313T1648 820Q1648 457 1398 210T773 -37Q455 -37 264 153T73 650Q73 887 187 1085T504 1395T956 1508ZM953 1369Q742 1369 577 1277T315 1016T218 656Q218 494 288 366T481 169T772 101Q970 101 1139 196T1404 461T1501 828Q1501 1089 1318 1242Q1166 1369 953 1369ZM934 1895L1109 1587H971L719 1895H934Z"  />
<glyph unicode="&#xD3;" horiz-adv-x="1780" d="M956 1508Q1253 1508 1450 1313T1648 820Q1648 457 1398 210T773 -37Q455 -37 264 153T73 650Q73 887 187 1085T504 1395T956 1508ZM953 1369Q742 1369 577 1277T315 1016T218 656Q218 494 288 366T481 169T772 101Q970 101 1139 196T1404 461T1501 828Q1501 1089 1318 1242Q1166 1369 953 1369ZM1087 1895H1302L963 1587H825L1087 1895Z"  />
<glyph unicode="&#xD4;" horiz-adv-x="1780" d="M956 1508Q1253 1508 1450 1313T1648 820Q1648 457 1398 210T773 -37Q455 -37 264 153T73 650Q73 887 187 1085T504 1395T956 1508ZM953 1369Q742 1369 577 1277T315 1016T218 656Q218 494 288 366T481 169T772 101Q970 101 1139 196T1404 461T1501 828Q1501 1089 1318 1242Q1166 1369 953 1369ZM932 1840H1071L1325 1583H1145L990 1735L785 1583H599L932 1840Z"  />
<glyph unicode="&#xD5;" horiz-adv-x="1780" d="M956 1508Q1253 1508 1450 1313T1648 820Q1648 457 1398 210T773 -37Q455 -37 264 153T73 650Q73 887 187 1085T504 1395T956 1508ZM953 1369Q742 1369 577 1277T315 1016T218 656Q218 494 288 366T481 169T772 101Q970 101 1139 196T1404 461T1501 828Q1501 1089 1318 1242Q1166 1369 953 1369ZM1276 1789L1333 1692Q1253 1640 1201 1622T1094 1604Q1022 1604 951 1641Q891 1673 874 1678Q850 1685 824 1685Q787 1685 754 1673T655 1616L603 1718Q708 1815 841 1815Q905 1815 989 1775Q1069 1736 1115 1736Q1173 1736 1276 1789Z"  />
<glyph unicode="&#xD6;" horiz-adv-x="1780" d="M956 1508Q1253 1508 1450 1313T1648 820Q1648 457 1398 210T773 -37Q455 -37 264 153T73 650Q73 887 187 1085T504 1395T956 1508ZM953 1369Q742 1369 577 1277T315 1016T218 656Q218 494 288 366T481 169T772 101Q970 101 1139 196T1404 461T1501 828Q1501 1089 1318 1242Q1166 1369 953 1369ZM791 1816Q834 1816 863 1787T892 1716Q892 1664 852 1624T757 1584Q715 1584 687 1612T658 1684Q658 1736 698 1776T791 1816ZM1199 1816Q1243 1816 1271 1787T1300 1716Q1300 1664 1260 1624T1166 1584Q1123 1584 1095 1612T1066 1684Q1066 1736 1106 1776T1199 1816Z"  />
<glyph unicode="&#xD7;" horiz-adv-x="1241" d="M712 735L1044 404L952 312L621 643L289 312L197 404L528 735L197 1067L289 1159L621 827L952 1159L1044 1067L712 735Z"  />
<glyph unicode="&#xD8;" horiz-adv-x="1778" d="M1460 1301Q1646 1110 1646 820Q1646 458 1396 211T773 -37Q540 -37 375 63L243 -88L145 0L271 144Q71 338 71 650Q71 886 184 1083T500 1394T942 1508Q1177 1508 1358 1387L1479 1526L1581 1439L1460 1301ZM366 254L1264 1281Q1127 1369 934 1369Q739 1369 573 1275T311 1014T216 656Q216 538 256 433T366 254ZM1366 1194L472 173Q604 101 771 101Q968 101 1137 196T1403 461T1499 828Q1499 1045 1366 1194Z"  />
<glyph unicode="&#xD9;" horiz-adv-x="1341" d="M233 1471H378L267 629Q245 461 245 390Q245 252 324 178T547 103Q648 103 726 137T858 236T936 386Q976 534 1005 760L1097 1471H1242L1144 728L1120 546Q1099 419 1070 330T994 171T887 58T742 -11T550 -37Q333 -37 215 73T97 365Q97 416 103 479L125 651L233 1471ZM714 1895L889 1587H751L499 1895H714Z"  />
<glyph unicode="&#xDA;" horiz-adv-x="1341" d="M233 1471H378L267 629Q245 461 245 390Q245 252 324 178T547 103Q648 103 726 137T858 236T936 386Q976 534 1005 760L1097 1471H1242L1144 728L1120 546Q1099 419 1070 330T994 171T887 58T742 -11T550 -37Q333 -37 215 73T97 365Q97 416 103 479L125 651L233 1471ZM868 1895H1083L744 1587H606L868 1895Z"  />
<glyph unicode="&#xDB;" horiz-adv-x="1341" d="M233 1471H378L267 629Q245 461 245 390Q245 252 324 178T547 103Q648 103 726 137T858 236T936 386Q976 534 1005 760L1097 1471H1242L1144 728L1120 546Q1099 419 1070 330T994 171T887 58T742 -11T550 -37Q333 -37 215 73T97 365Q97 416 103 479L125 651L233 1471ZM713 1840H852L1106 1583H926L771 1735L566 1583H380L713 1840Z"  />
<glyph unicode="&#xDC;" horiz-adv-x="1341" d="M233 1471H378L267 629Q245 461 245 390Q245 252 324 178T547 103Q648 103 726 137T858 236T936 386Q976 534 1005 760L1097 1471H1242L1144 728L1120 546Q1099 419 1070 330T994 171T887 58T742 -11T550 -37Q333 -37 215 73T97 365Q97 416 103 479L125 651L233 1471ZM571 1816Q614 1816 643 1787T672 1716Q672 1664 632 1624T537 1584Q495 1584 467 1612T438 1684Q438 1736 478 1776T571 1816ZM979 1816Q1023 1816 1051 1787T1080 1716Q1080 1664 1040 1624T946 1584Q903 1584 875 1612T846 1684Q846 1736 886 1776T979 1816Z"  />
<glyph unicode="&#xDD;" horiz-adv-x="1212" d="M83 1471H237L552 803L1083 1471H1261L609 652L520 0H376L465 660L83 1471ZM803 1895H1018L679 1587H541L803 1895Z"  />
<glyph unicode="&#xDE;" horiz-adv-x="1212" d="M262 1471H409L362 1123H616Q815 1123 901 1086T1039 968T1092 776Q1092 630 1010 523T803 376Q712 348 482 348H259L212 0H65L262 1471ZM345 981L277 492H481Q689 492 768 520T896 618T945 774Q945 843 912 892T820 961T608 981H345Z"  />
<glyph unicode="&#xDF;" horiz-adv-x="1135" d="M185 0H44L185 993Q216 1209 275 1312T439 1476T669 1536Q816 1536 910 1445T1005 1215Q1005 1074 934 975T721 825Q846 766 908 672T970 460Q970 268 846 120T511 -28Q386 -28 300 25L319 161Q423 106 505 106Q621 106 725 197T830 444Q830 705 485 761L507 912Q618 912 701 951T828 1059T872 1207Q872 1289 815 1343T665 1398Q566 1398 488 1343T371 1201Q347 1145 325 993L185 0Z"  />
<glyph unicode="&#xE0;" horiz-adv-x="1399" d="M1121 0H980L1001 164Q812 -28 568 -28Q346 -28 203 115T60 483Q60 743 245 929T682 1116Q818 1116 920 1059T1096 881L1121 1088H1266L1121 0ZM583 100Q718 100 829 163T1005 346T1070 605Q1070 774 963 880T685 986Q484 986 341 841T198 485Q198 312 305 206T583 100ZM743 1598L918 1290H780L528 1598H743Z"  />
<glyph unicode="&#xE1;" horiz-adv-x="1399" d="M1121 0H980L1001 164Q812 -28 568 -28Q346 -28 203 115T60 483Q60 743 245 929T682 1116Q818 1116 920 1059T1096 881L1121 1088H1266L1121 0ZM583 100Q718 100 829 163T1005 346T1070 605Q1070 774 963 880T685 986Q484 986 341 841T198 485Q198 312 305 206T583 100ZM896 1598H1111L772 1290H634L896 1598Z"  />
<glyph unicode="&#xE2;" horiz-adv-x="1399" d="M1121 0H980L1001 164Q812 -28 568 -28Q346 -28 203 115T60 483Q60 743 245 929T682 1116Q818 1116 920 1059T1096 881L1121 1088H1266L1121 0ZM583 100Q718 100 829 163T1005 346T1070 605Q1070 774 963 880T685 986Q484 986 341 841T198 485Q198 312 305 206T583 100ZM742 1542H881L1135 1285H955L800 1437L595 1285H409L742 1542Z"  />
<glyph unicode="&#xE3;" horiz-adv-x="1399" d="M1121 0H980L1001 164Q812 -28 568 -28Q346 -28 203 115T60 483Q60 743 245 929T682 1116Q818 1116 920 1059T1096 881L1121 1088H1266L1121 0ZM583 100Q718 100 829 163T1005 346T1070 605Q1070 774 963 880T685 986Q484 986 341 841T198 485Q198 312 305 206T583 100ZM1085 1492L1142 1395Q1062 1343 1010 1325T903 1307Q831 1307 760 1344Q700 1376 683 1381Q659 1388 633 1388Q596 1388 563 1376T464 1319L412 1421Q517 1518 650 1518Q714 1518 798 1478Q878 1439 924 1439Q982 1439 1085 1492Z"  />
<glyph unicode="&#xE4;" horiz-adv-x="1399" d="M1121 0H980L1001 164Q812 -28 568 -28Q346 -28 203 115T60 483Q60 743 245 929T682 1116Q818 1116 920 1059T1096 881L1121 1088H1266L1121 0ZM583 100Q718 100 829 163T1005 346T1070 605Q1070 774 963 880T685 986Q484 986 341 841T198 485Q198 312 305 206T583 100ZM600 1518Q643 1518 672 1489T701 1418Q701 1366 661 1326T566 1286Q524 1286 496 1314T467 1386Q467 1438 507 1478T600 1518ZM1008 1518Q1052 1518 1080 1489T1109 1418Q1109 1366 1069 1326T975 1286Q932 1286 904 1314T875 1386Q875 1438 915 1478T1008 1518Z"  />
<glyph unicode="&#xE5;" horiz-adv-x="1399" d="M1121 0H980L1001 164Q812 -28 568 -28Q346 -28 203 115T60 483Q60 743 245 929T682 1116Q818 1116 920 1059T1096 881L1121 1088H1266L1121 0ZM583 100Q718 100 829 163T1005 346T1070 605Q1070 774 963 880T685 986Q484 986 341 841T198 485Q198 312 305 206T583 100ZM828 1691Q908 1691 961 1639T1014 1507Q1014 1411 940 1338T766 1264Q688 1264 636 1317T583 1448Q583 1544 657 1617T828 1691ZM812 1590Q762 1590 724 1552T686 1465Q686 1424 713 1397T781 1370Q832 1370 870 1408T908 1495Q908 1536 881 1563T812 1590Z"  />
<glyph unicode="&#xE6;" horiz-adv-x="2370" d="M1149 1088H1274L1252 910Q1343 1013 1458 1064T1706 1116Q1929 1116 2071 976T2213 612Q2213 567 2205 516H1220L1217 469Q1217 371 1268 283T1407 148T1612 101Q1835 101 1988 275L2095 196Q1915 -28 1597 -28Q1441 -28 1335 28T1155 200L1128 0H1004L1025 170Q922 66 812 19T568 -28Q339 -28 206 111Q58 264 58 493Q58 748 242 932T679 1116Q839 1116 954 1046Q1040 993 1119 869L1149 1088ZM683 987Q455 987 315 818Q195 675 195 487Q195 315 304 209T593 102Q727 102 840 166T1019 346T1085 588Q1085 696 1032 791T890 936T683 987ZM2081 635Q2076 784 1979 884T1708 985Q1542 985 1418 892T1245 635H2081Z"  />
<glyph unicode="&#xE7;" horiz-adv-x="1325" d="M1198 853L1083 786Q962 982 713 982Q569 982 450 918T264 740T197 496Q197 381 247 290T387 150T601 101Q727 101 841 151T1020 280L1135 199Q1027 81 901 27T607 -28Q349 -28 205 112T60 487Q60 747 249 931T714 1116Q879 1116 1005 1047T1198 853ZM533 0H621L587 -118Q611 -115 626 -115Q670 -115 698 -141T727 -206Q727 -276 659 -328T474 -380Q386 -380 312 -350L343 -281Q405 -301 461 -301Q539 -301 572 -281T605 -232Q605 -216 590 -205T549 -193Q525 -193 477 -202L533 0Z"  />
<glyph unicode="&#xE8;" horiz-adv-x="1331" d="M1166 516H196Q193 322 297 211Q401 100 574 100Q689 100 787 147T949 279L1053 194Q974 93 847 33T571 -28Q315 -28 187 130T58 487Q58 649 144 799T376 1032T690 1116Q899 1116 1036 975T1173 614Q1173 574 1166 516ZM1038 637Q1032 791 933 886T684 982Q521 982 397 890T220 637H1038ZM709 1598L884 1290H746L494 1598H709Z"  />
<glyph unicode="&#xE9;" horiz-adv-x="1331" d="M1166 516H196Q193 322 297 211Q401 100 574 100Q689 100 787 147T949 279L1053 194Q974 93 847 33T571 -28Q315 -28 187 130T58 487Q58 649 144 799T376 1032T690 1116Q899 1116 1036 975T1173 614Q1173 574 1166 516ZM1038 637Q1032 791 933 886T684 982Q521 982 397 890T220 637H1038ZM862 1598H1077L738 1290H600L862 1598Z"  />
<glyph unicode="&#xEA;" horiz-adv-x="1331" d="M1166 516H196Q193 322 297 211Q401 100 574 100Q689 100 787 147T949 279L1053 194Q974 93 847 33T571 -28Q315 -28 187 130T58 487Q58 649 144 799T376 1032T690 1116Q899 1116 1036 975T1173 614Q1173 574 1166 516ZM1038 637Q1032 791 933 886T684 982Q521 982 397 890T220 637H1038ZM707 1542H846L1100 1285H920L765 1437L560 1285H374L707 1542Z"  />
<glyph unicode="&#xEB;" horiz-adv-x="1331" d="M1166 516H196Q193 322 297 211Q401 100 574 100Q689 100 787 147T949 279L1053 194Q974 93 847 33T571 -28Q315 -28 187 130T58 487Q58 649 144 799T376 1032T690 1116Q899 1116 1036 975T1173 614Q1173 574 1166 516ZM1038 637Q1032 791 933 886T684 982Q521 982 397 890T220 637H1038ZM566 1518Q609 1518 638 1489T667 1418Q667 1366 627 1326T532 1286Q490 1286 462 1314T433 1386Q433 1438 473 1478T566 1518ZM974 1518Q1018 1518 1046 1489T1075 1418Q1075 1366 1035 1326T941 1286Q898 1286 870 1314T841 1386Q841 1438 881 1478T974 1518Z"  />
<glyph unicode="&#xEC;" horiz-adv-x="410" d="M164 1088H297L152 0H14L164 1088ZM249 1598L424 1290H286L34 1598H249Z"  />
<glyph unicode="&#xED;" horiz-adv-x="410" d="M164 1088H297L152 0H14L164 1088ZM403 1598H618L279 1290H141L403 1598Z"  />
<glyph unicode="&#xEE;" horiz-adv-x="410" d="M164 1088H297L152 0H14L164 1088ZM248 1542H387L641 1285H461L306 1437L101 1285H-85L248 1542Z"  />
<glyph unicode="&#xEF;" horiz-adv-x="410" d="M164 1088H297L152 0H14L164 1088ZM107 1518Q150 1518 179 1489T208 1418Q208 1366 168 1326T73 1286Q31 1286 3 1314T-26 1386Q-26 1438 14 1478T107 1518ZM515 1518Q559 1518 587 1489T616 1418Q616 1366 576 1326T482 1286Q439 1286 411 1314T382 1386Q382 1438 422 1478T515 1518Z"  />
<glyph unicode="&#xF0;" horiz-adv-x="1341" d="M471 1508H660Q733 1468 792 1419L975 1487L1010 1387L884 1340Q1026 1200 1105 1020T1184 650Q1184 455 1101 304T867 63T554 -28Q416 -28 305 36T127 224T60 487Q60 641 147 790T379 1028T671 1116Q839 1116 954 1012Q879 1168 759 1292L531 1206L492 1307L669 1372Q576 1443 471 1508ZM694 975Q567 975 450 908T265 726T197 486Q197 379 245 290T376 153T560 106Q676 106 791 175T973 363T1040 614Q1040 775 942 875T694 975Z"  />
<glyph unicode="&#xF1;" horiz-adv-x="1249" d="M192 1088H326L305 921Q470 1116 689 1116Q857 1116 960 1013T1063 734Q1063 664 1041 499L973 0H835L902 499Q924 659 924 735Q924 849 855 919T674 989Q564 989 470 933T323 779T243 470L178 0H41L192 1088ZM1011 1492L1068 1395Q988 1343 936 1325T829 1307Q757 1307 686 1344Q626 1376 609 1381Q585 1388 559 1388Q522 1388 489 1376T390 1319L338 1421Q443 1518 576 1518Q640 1518 724 1478Q804 1439 850 1439Q908 1439 1011 1492Z"  />
<glyph unicode="&#xF2;" horiz-adv-x="1341" d="M680 1116Q819 1116 935 1050T1116 865T1181 596Q1181 425 1098 279T875 52T558 -28Q339 -28 198 115T56 481Q56 655 139 802T366 1032T680 1116ZM677 983Q547 983 433 918T257 740T195 489Q195 317 301 210T575 102Q706 102 812 164T982 345T1045 598Q1045 711 998 798T865 934T677 983ZM714 1598L889 1290H751L499 1598H714Z"  />
<glyph unicode="&#xF3;" horiz-adv-x="1341" d="M680 1116Q819 1116 935 1050T1116 865T1181 596Q1181 425 1098 279T875 52T558 -28Q339 -28 198 115T56 481Q56 655 139 802T366 1032T680 1116ZM677 983Q547 983 433 918T257 740T195 489Q195 317 301 210T575 102Q706 102 812 164T982 345T1045 598Q1045 711 998 798T865 934T677 983ZM868 1598H1083L744 1290H606L868 1598Z"  />
<glyph unicode="&#xF4;" horiz-adv-x="1341" d="M680 1116Q819 1116 935 1050T1116 865T1181 596Q1181 425 1098 279T875 52T558 -28Q339 -28 198 115T56 481Q56 655 139 802T366 1032T680 1116ZM677 983Q547 983 433 918T257 740T195 489Q195 317 301 210T575 102Q706 102 812 164T982 345T1045 598Q1045 711 998 798T865 934T677 983ZM713 1542H852L1106 1285H926L771 1437L566 1285H380L713 1542Z"  />
<glyph unicode="&#xF5;" horiz-adv-x="1341" d="M680 1116Q819 1116 935 1050T1116 865T1181 596Q1181 425 1098 279T875 52T558 -28Q339 -28 198 115T56 481Q56 655 139 802T366 1032T680 1116ZM677 983Q547 983 433 918T257 740T195 489Q195 317 301 210T575 102Q706 102 812 164T982 345T1045 598Q1045 711 998 798T865 934T677 983ZM1056 1492L1113 1395Q1033 1343 981 1325T874 1307Q802 1307 731 1344Q671 1376 654 1381Q630 1388 604 1388Q567 1388 534 1376T435 1319L383 1421Q488 1518 621 1518Q685 1518 769 1478Q849 1439 895 1439Q953 1439 1056 1492Z"  />
<glyph unicode="&#xF6;" horiz-adv-x="1341" d="M680 1116Q819 1116 935 1050T1116 865T1181 596Q1181 425 1098 279T875 52T558 -28Q339 -28 198 115T56 481Q56 655 139 802T366 1032T680 1116ZM677 983Q547 983 433 918T257 740T195 489Q195 317 301 210T575 102Q706 102 812 164T982 345T1045 598Q1045 711 998 798T865 934T677 983ZM571 1518Q614 1518 643 1489T672 1418Q672 1366 632 1326T537 1286Q495 1286 467 1314T438 1386Q438 1438 478 1478T571 1518ZM979 1518Q1023 1518 1051 1489T1080 1418Q1080 1366 1040 1326T946 1286Q903 1286 875 1314T846 1386Q846 1438 886 1478T979 1518Z"  />
<glyph unicode="&#xF7;" horiz-adv-x="1124" d="M461 1207H662V1005H461V1207ZM56 804H1068V667H56V804ZM461 466H662V261H461V466Z"  />
<glyph unicode="&#xF8;" horiz-adv-x="1337" d="M1071 931Q1179 788 1179 596Q1179 425 1097 279T874 52T557 -28Q401 -28 293 38L164 -111L63 -24L190 122Q54 268 54 481Q54 654 136 800T363 1031T670 1116Q848 1116 975 1024L1096 1163L1199 1079L1071 931ZM282 228L886 922Q791 983 667 983Q543 983 429 917T254 738T193 489Q193 336 282 228ZM980 827L386 145Q471 102 573 102Q704 102 810 164T980 345T1043 597Q1043 725 980 827Z"  />
<glyph unicode="&#xF9;" horiz-adv-x="1245" d="M188 1088H328L265 633Q239 440 239 385Q239 260 322 181T543 102Q657 102 741 162T861 319Q879 368 904 544L982 1088H1119L1063 676Q1023 381 978 257T818 52T536 -28Q347 -28 227 87T106 376Q106 445 117 537L127 633L132 674L188 1088ZM666 1598L841 1290H703L451 1598H666Z"  />
<glyph unicode="&#xFA;" horiz-adv-x="1245" d="M188 1088H328L265 633Q239 440 239 385Q239 260 322 181T543 102Q657 102 741 162T861 319Q879 368 904 544L982 1088H1119L1063 676Q1023 381 978 257T818 52T536 -28Q347 -28 227 87T106 376Q106 445 117 537L127 633L132 674L188 1088ZM820 1598H1035L696 1290H558L820 1598Z"  />
<glyph unicode="&#xFB;" horiz-adv-x="1245" d="M188 1088H328L265 633Q239 440 239 385Q239 260 322 181T543 102Q657 102 741 162T861 319Q879 368 904 544L982 1088H1119L1063 676Q1023 381 978 257T818 52T536 -28Q347 -28 227 87T106 376Q106 445 117 537L127 633L132 674L188 1088ZM665 1542H804L1058 1285H878L723 1437L518 1285H332L665 1542Z"  />
<glyph unicode="&#xFC;" horiz-adv-x="1245" d="M188 1088H328L265 633Q239 440 239 385Q239 260 322 181T543 102Q657 102 741 162T861 319Q879 368 904 544L982 1088H1119L1063 676Q1023 381 978 257T818 52T536 -28Q347 -28 227 87T106 376Q106 445 117 537L127 633L132 674L188 1088ZM523 1518Q566 1518 595 1489T624 1418Q624 1366 584 1326T489 1286Q447 1286 419 1314T390 1386Q390 1438 430 1478T523 1518ZM931 1518Q975 1518 1003 1489T1032 1418Q1032 1366 992 1326T898 1286Q855 1286 827 1314T798 1386Q798 1438 838 1478T931 1518Z"  />
<glyph unicode="&#xFD;" horiz-adv-x="1098" d="M47 1088H191L473 285L939 1088H1094L232 -398H75L383 133L47 1088ZM746 1598H961L622 1290H484L746 1598Z"  />
<glyph unicode="&#xFE;" horiz-adv-x="1397" d="M260 1508H402L325 925Q514 1116 757 1116Q980 1116 1122 973T1265 605Q1265 345 1080 159T644 -28Q508 -28 405 29T230 208L151 -398H6L260 1508ZM742 988Q608 988 497 925T320 742T255 483Q255 314 362 208T640 102Q841 102 984 247T1127 603Q1127 776 1021 882T742 988Z"  />
<glyph unicode="&#xFF;" horiz-adv-x="1098" d="M47 1088H191L473 285L939 1088H1094L232 -398H75L383 133L47 1088ZM450 1518Q493 1518 522 1489T551 1418Q551 1366 511 1326T416 1286Q374 1286 346 1314T317 1386Q317 1438 357 1478T450 1518ZM858 1518Q902 1518 930 1489T959 1418Q959 1366 919 1326T825 1286Q782 1286 754 1314T725 1386Q725 1438 765 1478T858 1518Z"  />
<glyph unicode="&#x131;" horiz-adv-x="410" d="M164 1088H297L152 0H14L164 1088Z"  />
<glyph unicode="&#x152;" horiz-adv-x="2445" d="M1593 1471H2401L2383 1328H1719L1654 846H2318L2300 705H1636L1561 142H2225L2205 0H1395L1427 239Q1290 96 1130 30T774 -37Q431 -37 238 188Q78 376 78 658Q78 1014 326 1261T935 1508Q1147 1508 1302 1423T1553 1167L1593 1471ZM930 1368Q789 1368 616 1288T332 1038T222 650Q222 406 379 250T776 93Q965 93 1136 191T1405 457T1503 814Q1503 977 1433 1101T1231 1296T930 1368Z"  />
<glyph unicode="&#x153;" horiz-adv-x="2329" d="M2154 517H1186Q1183 479 1183 460Q1183 306 1288 204T1563 101Q1790 101 1938 279L2043 195Q1959 89 1835 31T1559 -28Q1395 -28 1282 41T1094 254Q988 104 872 44Q733 -28 565 -28Q338 -28 201 113T64 482Q64 651 148 801T371 1033T677 1116Q841 1116 963 1038T1144 822Q1246 970 1382 1043T1676 1116Q1892 1116 2027 978T2162 613Q2162 567 2154 517ZM682 984Q478 984 341 843T204 482Q204 304 306 203T581 102Q779 102 917 244T1055 599Q1055 773 951 878T682 984ZM2028 636Q2026 783 1926 883T1678 983Q1509 983 1377 884T1209 636H2028Z"  />
<glyph unicode="&#x160;" horiz-adv-x="1020" d="M927 1199L788 1164Q760 1257 696 1311T558 1365Q476 1365 425 1310T373 1161Q373 1079 428 990Q462 934 592 816Q727 694 780 589T834 382Q834 275 776 176T618 20T408 -37Q267 -37 164 53T15 317L151 363Q183 231 255 167T421 103Q528 103 605 182T682 377Q682 462 639 543T468 738Q332 862 291 928Q224 1038 224 1160Q224 1311 322 1409T567 1508Q690 1508 786 1430T927 1199ZM649 1583H510L256 1840H436L591 1688L796 1840H982L649 1583Z"  />
<glyph unicode="&#x161;" horiz-adv-x="795" d="M694 966L618 853Q526 984 400 984Q328 984 277 937T226 833Q226 789 257 749Q287 709 394 640Q550 539 600 464Q649 388 649 289Q649 152 554 62T305 -28Q103 -28 -35 151L50 250Q171 103 313 103Q394 103 454 160T514 292Q514 353 469 409Q440 445 313 531Q176 625 133 687Q90 748 90 825Q90 946 181 1031T411 1116Q493 1116 559 1083T694 966ZM536 1285H397L143 1542H323L478 1390L683 1542H869L536 1285Z"  />
<glyph unicode="&#x178;" horiz-adv-x="1212" d="M83 1471H237L552 803L1083 1471H1261L609 652L520 0H376L465 660L83 1471ZM507 1816Q550 1816 579 1787T608 1716Q608 1664 568 1624T473 1584Q431 1584 403 1612T374 1684Q374 1736 414 1776T507 1816ZM915 1816Q959 1816 987 1787T1016 1716Q1016 1664 976 1624T882 1584Q839 1584 811 1612T782 1684Q782 1736 822 1776T915 1816Z"  />
<glyph unicode="&#x17D;" horiz-adv-x="983" d="M217 1471H973L251 140H802L783 0H13L738 1329H198L217 1471ZM675 1611H536L282 1868H462L617 1716L822 1868H1008L675 1611Z"  />
<glyph unicode="&#x17E;" horiz-adv-x="870" d="M92 1088H840L190 124H781L765 0H-57L596 965H76L92 1088ZM521 1226H382L128 1483H308L463 1331L668 1483H854L521 1226Z"  />
<glyph unicode="&#x192;" horiz-adv-x="1135" d="M597 882H828L811 760H578L471 50Q442 -146 397 -241T287 -381T150 -426Q82 -426 8 -377L26 -253Q81 -298 137 -298Q208 -298 259 -225T343 71L444 760H303L320 882H461L510 1201Q538 1385 575 1440Q641 1536 741 1536Q824 1536 918 1471L900 1338Q823 1411 761 1411Q712 1411 686 1366T639 1176L597 882Z"  />
<glyph unicode="&#x2C6;" horiz-adv-x="1028" d="M556 1542H695L949 1285H769L614 1437L409 1285H223L556 1542Z"  />
<glyph unicode="&#x2C7;" horiz-adv-x="1028" d="M652 1285H513L259 1542H439L594 1390L799 1542H985L652 1285Z"  />
<glyph unicode="&#x2DA;" horiz-adv-x="680" d="M471 1691Q551 1691 604 1639T657 1507Q657 1411 583 1338T409 1264Q331 1264 279 1317T226 1448Q226 1544 300 1617T471 1691ZM455 1590Q405 1590 367 1552T329 1465Q329 1424 356 1397T424 1370Q475 1370 513 1408T551 1495Q551 1536 524 1563T455 1590Z"  />
<glyph unicode="&#x2DC;" horiz-adv-x="899" d="M835 1492L892 1395Q812 1343 760 1325T653 1307Q581 1307 510 1344Q450 1376 433 1381Q409 1388 383 1388Q346 1388 313 1376T214 1319L162 1421Q267 1518 400 1518Q464 1518 548 1478Q628 1439 674 1439Q732 1439 835 1492Z"  />
<glyph unicode="&#x2013;" horiz-adv-x="1024" d="M-12 637H1036V508H-12V637Z"  />
<glyph unicode="&#x2014;" horiz-adv-x="2048" d="M-12 637H2060V508H-12V637Z"  />
<glyph unicode="&#x2018;" horiz-adv-x="719" d="M444 1508L516 1464Q461 1373 444 1333T414 1234H502L463 957H287L300 1080Q315 1235 347 1325T444 1508Z"  />
<glyph unicode="&#x2019;" horiz-adv-x="719" d="M359 957L287 1001Q342 1092 359 1132T389 1231H301L339 1508H516L503 1385Q487 1229 456 1140T359 957Z"  />
<glyph unicode="&#x201A;" horiz-adv-x="725" d="M231 -274L159 -230Q214 -139 231 -99T261 0H173L211 277H388L375 154Q359 -2 328 -91T231 -274Z"  />
<glyph unicode="&#x201C;" horiz-adv-x="1028" d="M790 1508L862 1464Q807 1373 790 1333T760 1234H848L809 957H633L646 1080Q661 1235 693 1325T790 1508ZM349 1508L421 1464Q366 1373 349 1333T319 1234H407L368 957H192L205 1080Q220 1235 252 1325T349 1508Z"  />
<glyph unicode="&#x201D;" horiz-adv-x="991" d="M245 957L173 1001Q228 1092 245 1132T275 1231H187L225 1508H402L389 1385Q373 1229 342 1140T245 957ZM686 957L614 1001Q669 1092 686 1132T716 1231H628L666 1508H843L830 1385Q814 1229 783 1140T686 957Z"  />
<glyph unicode="&#x201E;" horiz-adv-x="1028" d="M162 -274L90 -230Q145 -139 162 -99T192 0H104L142 277H319L306 154Q290 -2 259 -91T162 -274ZM603 -274L531 -230Q586 -139 603 -99T633 0H545L583 277H760L747 154Q731 -2 700 -91T603 -274Z"  />
<glyph unicode="&#x2020;" horiz-adv-x="1133" d="M575 1508H723L636 1051L999 1072L978 923L621 949L471 -314H319L524 949L160 923L181 1072L539 1051L575 1508Z"  />
<glyph unicode="&#x2021;" horiz-adv-x="1133" d="M577 1508H725L652 1154L1013 1177L992 1029L638 1056L597 597L510 145L871 165L850 17L496 45L469 -314H321L396 45L35 17L56 165L410 145L449 597L538 1056L177 1029L198 1177L552 1154L577 1508Z"  />
<glyph unicode="&#x2022;" horiz-adv-x="1241" d="M620 1053Q747 1053 837 963T927 746Q927 618 837 528T620 438Q493 438 403 528T313 746Q313 873 403 963T620 1053Z"  />
<glyph unicode="&#x2026;" horiz-adv-x="2048" d="M1024 216Q1075 216 1110 180T1146 94Q1146 44 1111 8T1024 -28Q973 -28 938 8T902 94Q902 144 937 180T1024 216ZM341 216Q392 216 427 180T463 94Q463 44 428 8T341 -28Q290 -28 255 8T219 94Q219 144 254 180T341 216ZM1707 216Q1757 216 1793 180T1829 94Q1829 44 1793 8T1707 -28Q1656 -28 1620 8T1584 94Q1584 144 1620 180T1707 216Z"  />
<glyph unicode="&#x2030;" horiz-adv-x="2404" d="M1493 1536L186 -102H70L1272 1408Q1183 1386 1086 1375T885 1364Q835 1364 758 1369Q806 1291 806 1205Q806 1037 695 924T415 811Q278 811 193 896T107 1114Q107 1279 227 1393T491 1508Q530 1508 614 1491Q773 1458 885 1458Q1008 1458 1134 1477T1389 1536H1493ZM494 1399Q386 1399 307 1317T227 1125Q227 1035 283 976T426 917Q541 917 614 1002T687 1200Q687 1287 633 1343T494 1399ZM1188 659Q1318 659 1407 572T1497 356Q1497 201 1391 82T1105 -37Q969 -37 884 48T798 265Q798 424 915 541T1188 659ZM1184 551Q1076 551 997 469T917 276Q917 186 973 127T1116 68Q1232 68 1305 153T1378 351Q1378 438 1323 494T1184 551ZM1980 659Q2110 659 2199 572T2289 356Q2289 201 2183 82T1897 -37Q1761 -37 1676 48T1590 265Q1590 424 1707 541T1980 659ZM1977 551Q1869 551 1789 469T1709 276Q1709 186 1765 127T1909 68Q2024 68 2097 153T2170 351Q2170 438 2115 494T1977 551Z"  />
<glyph unicode="&#x2039;" horiz-adv-x="514" d="M326 1088H478L176 538L318 0H182L33 557L326 1088Z"  />
<glyph unicode="&#x203A;" horiz-adv-x="514" d="M149 0H-3L299 550L158 1088H293L442 531L149 0Z"  />
<glyph unicode="&#x2044;" horiz-adv-x="340" d="M-394 -37L538 1508H650L-283 -37H-394Z"  />
<glyph unicode="&#x20AC;" horiz-adv-x="1135" d="M152 965Q255 1223 480 1365T1008 1507Q1084 1507 1163 1493L1106 1352Q1058 1364 1001 1364Q771 1364 595 1262T315 965H971L913 827H266Q246 757 246 653H842L786 516H264Q303 327 466 215T846 102Q928 102 993 117L975 -23Q915 -35 852 -35Q562 -35 360 112T111 516H-35L18 653H94Q102 790 113 827H8L66 965H152Z"  />
<glyph unicode="&#x2122;" horiz-adv-x="2048" d="M1966 1513V651H1816V1361L1495 651H1396L1085 1361V651H936V1513H1179L1446 916L1728 1513H1966ZM770 1513V1376H465V651H315V1376H12V1513H770Z"  />


</font>
</defs>
</svg>
